<svg width="39" height="39" viewBox="0 0 39 39" fill="none" xmlns="http://www.w3.org/2000/svg">
<rect x="0.5" y="0.5" width="38" height="38" rx="9.5" stroke="#E0E0E0"/>
<path d="M24 19.4958C24 19.6426 23.9735 19.7781 23.9204 19.9023C23.8615 20.0265 23.7731 20.1451 23.6552 20.258L16.7682 26.712C16.5678 26.904 16.3261 27 16.0432 27C15.8487 27 15.6749 26.9548 15.5216 26.8645C15.3625 26.7798 15.2358 26.6612 15.1415 26.5088C15.0472 26.3619 15 26.1982 15 26.0175C15 25.7465 15.109 25.5065 15.3271 25.2976L21.5334 19.4958L15.3271 13.694C15.109 13.485 15 13.2479 15 12.9825C15 12.7962 15.0472 12.6296 15.1415 12.4828C15.2358 12.336 15.3625 12.2202 15.5216 12.1355C15.6749 12.0452 15.8487 12 16.0432 12C16.3261 12 16.5678 12.0932 16.7682 12.2795L23.6552 18.7335C23.7731 18.8464 23.8615 18.965 23.9204 19.0892C23.9735 19.2134 24 19.349 24 19.4958Z" fill="#6C757D"/>
</svg>
