<svg width="32" height="32" viewBox="0 0 32 32" fill="none" xmlns="http://www.w3.org/2000/svg">
<path fill-rule="evenodd" clip-rule="evenodd" d="M11.0002 8.02018C11 8.01358 11 8.00697 11 8.00033V6.66699C11 3.90557 13.2386 1.66699 16 1.66699C18.7615 1.66699 21 3.90557 21 6.66699V8.00033C21 8.00697 20.9999 8.01358 20.9997 8.02018C22.7161 8.0717 23.7664 8.25686 24.5681 8.92229C25.6791 9.84426 25.9716 11.4048 26.5569 14.5261L27.5569 19.8594C28.3799 24.2483 28.7912 26.4427 27.5916 27.8882C26.392 29.3337 24.1593 29.3337 19.6939 29.3337H12.306C7.84063 29.3337 5.60793 29.3337 4.40832 27.8882C3.20869 26.4427 3.62016 24.2483 4.44308 19.8594L5.44308 14.5261C6.02829 11.4048 6.3209 9.84426 7.43181 8.92229C8.23361 8.25686 9.28382 8.0717 11.0002 8.02018ZM13 6.66699C13 5.01014 14.3431 3.66699 16 3.66699C17.6568 3.66699 19 5.01014 19 6.66699V8.00033C19 8.00031 19 8.00034 19 8.00033C18.8996 8.0003 18.7976 8.00033 18.6939 8.00033H13.306C13.2023 8.00033 13.1003 8.00033 13 8.00035V6.66699Z" fill="#3D9879"/>
</svg>
