<svg width="24" height="24" viewBox="0 0 24 24" fill="none" xmlns="http://www.w3.org/2000/svg">
<path d="M5.65517 2.22754C5.2225 2.34059 4.9438 2.50043 4.72718 2.71266C4.42179 3.01187 4.22268 3.43194 4.11382 4.22522C4.00176 5.04181 4 6.12409 4 7.6759V16.2444C4.38867 15.9783 4.82674 15.7758 5.29899 15.6519C5.41296 15.6219 5.53103 15.5985 5.65517 15.5801V2.22754Z" fill="#3D9879"/>
<path d="M7.31055 15.5135C7.32227 15.5135 7.33403 15.5135 7.34584 15.5135H20.0002V7.67568C20.0002 6.12387 19.9984 5.04159 19.8864 4.22499C19.7775 3.43172 19.5784 3.01165 19.273 2.71244C18.9676 2.41324 18.5389 2.21816 17.7292 2.11151C16.8957 2.00172 15.791 2 14.2071 2H9.79331C8.79159 2 7.98154 2.00069 7.31055 2.02897V15.5135Z" fill="#3D9879"/>
<path d="M8.68991 17.1348H7.47367C6.39421 17.1348 6.01683 17.1418 5.72763 17.2177C4.9339 17.4261 4.30115 18.0041 4.02979 18.7555C4.04657 19.1379 4.07286 19.4743 4.11409 19.7747C4.22295 20.568 4.42206 20.9881 4.72745 21.2873C5.03285 21.5865 5.4616 21.7815 6.27129 21.8882C7.10478 21.998 8.20945 21.9997 9.79336 21.9997H14.2072C15.7911 21.9997 16.8958 21.998 17.7293 21.8882C18.539 21.7815 18.9677 21.5865 19.2731 21.2873C19.5785 20.9881 19.7776 20.568 19.8865 19.7747C19.9779 19.1085 19.9959 18.2654 19.9995 17.1348H13.1038V20.1414C13.1038 20.4394 13.1038 20.5883 12.9991 20.6485C12.8944 20.7087 12.7513 20.6421 12.465 20.5089L11.0943 19.871C10.9974 19.8259 10.949 19.8034 10.8969 19.8034C10.8448 19.8034 10.7963 19.8259 10.6995 19.871L9.32868 20.5089C9.0424 20.6421 8.89925 20.7087 8.79458 20.6485C8.68991 20.5883 8.68991 20.4394 8.68991 20.1414V17.1348Z" fill="#3D9879"/>
</svg>
