<svg width="164" height="164" viewBox="0 0 164 164" fill="none" xmlns="http://www.w3.org/2000/svg">
<g clip-path="url(#clip0_84_2600)">
<path d="M8.89164 91.3888L70.6684 122.554L81.6974 91.3888L19.9258 61.8791L8.89164 91.3888ZM83.0811 91.3888L93.5618 122.277L157.542 91.1121L145.13 61.8791L83.0811 91.3888ZM-1.26611 36.9613L19.9719 61.7817L81.7435 30.345L61.6125 4.69434L-1.26611 36.9613ZM165.266 37.5097L103.761 4.69434L82.7993 30.345L145.13 61.7817L165.266 37.5097ZM16.2716 99.184L16.0615 129.109L81.2156 159.31V103.038L71.9086 127.31L16.2716 99.184ZM83.4911 103.038V159.305L148.445 129.104V99.3838L92.1216 127.366L83.4911 103.038Z" fill="#3D9879"/>
</g>
<defs>
<clipPath id="clip0_84_2600">
<rect width="164" height="164" fill="white"/>
</clipPath>
</defs>
</svg>
