<svg width="24" height="25" viewBox="0 0 24 25" fill="none" xmlns="http://www.w3.org/2000/svg">
<path d="M12 22.5C17.5228 22.5 22 18.0228 22 12.5C22 6.97715 17.5228 2.5 12 2.5C6.47715 2.5 2 6.97715 2 12.5C2 14.0997 2.37562 15.6116 3.04346 16.9525C3.22094 17.3088 3.28001 17.7161 3.17712 18.1006L2.58151 20.3267C2.32295 21.293 3.20701 22.177 4.17335 21.9185L6.39939 21.3229C6.78393 21.22 7.19121 21.2791 7.54753 21.4565C8.88837 22.1244 10.4003 22.5 12 22.5Z" fill="white"/>
<path d="M15 12.5C15 13.0523 15.4477 13.5 16 13.5C16.5523 13.5 17 13.0523 17 12.5C17 11.9477 16.5523 11.5 16 11.5C15.4477 11.5 15 11.9477 15 12.5Z" fill="#3D9879"/>
<path d="M11 12.5C11 13.0523 11.4477 13.5 12 13.5C12.5523 13.5 13 13.0523 13 12.5C13 11.9477 12.5523 11.5 12 11.5C11.4477 11.5 11 11.9477 11 12.5Z" fill="#3D9879"/>
<path d="M7 12.5C7 13.0523 7.44772 13.5 8 13.5C8.55228 13.5 9 13.0523 9 12.5C9 11.9477 8.55228 11.5 8 11.5C7.44772 11.5 7 11.9477 7 12.5Z" fill="#3D9879"/>
</svg>
