<svg width="24" height="25" viewBox="0 0 24 25" fill="none" xmlns="http://www.w3.org/2000/svg">
<g clip-path="url(#clip0_337_823)">
<g clip-path="url(#clip1_337_823)">
<mask id="mask0_337_823" style="mask-type:luminance" maskUnits="userSpaceOnUse" x="-1" y="0" width="25" height="25">
<path d="M23.5 0.5H-0.5V24.5H23.5V0.5Z" fill="white"/>
</mask>
<g mask="url(#mask0_337_823)">
<path d="M16.5 10.5C18.1569 10.5 19.5 9.15685 19.5 7.5C19.5 5.84315 18.1569 4.5 16.5 4.5C14.8431 4.5 13.5 5.84315 13.5 7.5C13.5 9.15685 14.8431 10.5 16.5 10.5Z" stroke="#6C757D" stroke-width="2" stroke-linecap="round" stroke-linejoin="round"/>
<path d="M6.5 20.5C8.15685 20.5 9.5 19.1569 9.5 17.5C9.5 15.8431 8.15685 14.5 6.5 14.5C4.84315 14.5 3.5 15.8431 3.5 17.5C3.5 19.1569 4.84315 20.5 6.5 20.5Z" stroke="#6C757D" stroke-width="2" stroke-linecap="round" stroke-linejoin="round"/>
<path d="M13.5 14.5H19.5V19.5C19.5 20.0523 19.0523 20.5 18.5 20.5H14.5C13.9477 20.5 13.5 20.0523 13.5 19.5V14.5Z" stroke="#6C757D" stroke-width="2" stroke-linecap="round" stroke-linejoin="round"/>
<path d="M3.5 4.5H9.5V9.5C9.5 10.0523 9.05228 10.5 8.5 10.5H4.5C3.94772 10.5 3.5 10.0523 3.5 9.5V4.5Z" stroke="#6C757D" stroke-width="2" stroke-linecap="round" stroke-linejoin="round"/>
</g>
</g>
</g>
<defs>
<clipPath id="clip0_337_823">
<rect width="24" height="24" fill="white" transform="translate(0 0.5)"/>
</clipPath>
<clipPath id="clip1_337_823">
<rect width="24" height="24" fill="white" transform="translate(-0.5 0.5)"/>
</clipPath>
</defs>
</svg>
