<svg width="22" height="21" viewBox="0 0 22 21" fill="none" xmlns="http://www.w3.org/2000/svg">
<path d="M14.9277 0.640625C16.0687 0.356205 17.1662 0.515407 18.1299 1.00391C20.0687 1.9867 21.4999 4.33207 21.5 7.13867C21.5 12.7958 17.3139 15.7995 14.0127 18.6855C13.4371 19.1887 12.9035 19.6485 12.3838 19.9854C11.8621 20.3234 11.4094 20.5 11 20.5C10.5906 20.5 10.1379 20.3234 9.61621 19.9854C9.09647 19.6485 8.56288 19.1887 7.9873 18.6855C4.68607 15.7995 0.5 12.7958 0.5 7.13867C0.500061 4.33207 1.93133 1.9867 3.87012 1.00391C4.83383 0.515412 5.93128 0.356206 7.07227 0.640625C8.21614 0.925782 9.43752 1.66558 10.6221 3.03027L11 3.46582L11.3779 3.03027C12.5625 1.66557 13.7839 0.925779 14.9277 0.640625Z" stroke="#FF3B30"/>
</svg>
