<svg width="33" height="34" viewBox="0 0 33 34" fill="none" xmlns="http://www.w3.org/2000/svg">
<path fill-rule="evenodd" clip-rule="evenodd" d="M20.625 14.9377C21.6615 14.9375 22.6702 14.6029 23.5014 13.9836C24.3325 13.3643 24.9416 12.4934 25.2381 11.5002H28.875C29.2397 11.5002 29.5894 11.3553 29.8473 11.0975C30.1051 10.8396 30.25 10.4899 30.25 10.1252C30.25 9.76053 30.1051 9.4108 29.8473 9.15293C29.5894 8.89507 29.2397 8.75021 28.875 8.75021H25.2381C24.9411 7.75756 24.3318 6.88721 23.5007 6.26843C22.6696 5.64964 21.6611 5.31543 20.625 5.31543C19.5889 5.31543 18.5804 5.64964 17.7493 6.26843C16.9182 6.88721 16.3089 7.75756 16.0119 8.75021H4.125C3.76033 8.75021 3.41059 8.89507 3.15273 9.15293C2.89487 9.4108 2.75 9.76053 2.75 10.1252C2.75 10.4899 2.89487 10.8396 3.15273 11.0975C3.41059 11.3553 3.76033 11.5002 4.125 11.5002H16.0119C16.3084 12.4934 16.9175 13.3643 17.7486 13.9836C18.5798 14.6029 19.5885 14.9375 20.625 14.9377ZM4.125 22.5002C3.76033 22.5002 3.41059 22.6451 3.15273 22.9029C2.89487 23.1608 2.75 23.5105 2.75 23.8752C2.75 24.2399 2.89487 24.5896 3.15273 24.8475C3.41059 25.1053 3.76033 25.2502 4.125 25.2502H7.07438C7.37142 26.2428 7.98073 27.1132 8.8118 27.732C9.64287 28.3508 10.6514 28.685 11.6875 28.685C12.7236 28.685 13.7321 28.3508 14.5632 27.732C15.3943 27.1132 16.0036 26.2428 16.3006 25.2502H28.875C29.2397 25.2502 29.5894 25.1053 29.8473 24.8475C30.1051 24.5896 30.25 24.2399 30.25 23.8752C30.25 23.5105 30.1051 23.1608 29.8473 22.9029C29.5894 22.6451 29.2397 22.5002 28.875 22.5002H16.3006C16.0036 21.5076 15.3943 20.6372 14.5632 20.0184C13.7321 19.3996 12.7236 19.0654 11.6875 19.0654C10.6514 19.0654 9.64287 19.3996 8.8118 20.0184C7.98073 20.6372 7.37142 21.5076 7.07438 22.5002H4.125Z" fill="black" fill-opacity="0.25"/>
</svg>
