<svg width="24" height="24" viewBox="0 0 24 24" fill="none" xmlns="http://www.w3.org/2000/svg">
<g clip-path="url(#clip0_84_2688)">
<path d="M12 24C5.3835 24 0 18.6165 0 12C0 5.3835 5.3835 0 12 0C18.6165 0 24 5.3835 24 12C24 18.6165 18.6165 24 12 24ZM22.0575 15H17.1877C16.662 15.9067 15.9067 16.662 15 17.1877V22.0575C18.3802 21.048 21.048 18.3802 22.0575 15ZM12 7.5C9.51825 7.5 7.5 9.51825 7.5 12C7.5 14.4818 9.51825 16.5 12 16.5C14.4818 16.5 16.5 14.4818 16.5 12C16.5 9.51825 14.4818 7.5 12 7.5ZM12 22.5C12.5107 22.5 13.0087 22.4513 13.5 22.38V17.8027C13.0192 17.9265 12.519 18 12 18C11.481 18 10.9808 17.9265 10.5 17.8027V22.38C10.9913 22.4513 11.4893 22.5 12 22.5ZM9 22.0575V17.1877C8.09325 16.662 7.338 15.9067 6.81225 15H1.9425C2.952 18.3802 5.61975 21.048 9 22.0575ZM1.5 12C1.5 12.5107 1.54875 13.0087 1.62 13.5H6.19725C6.07275 13.0192 6 12.519 6 12C6 11.481 6.07275 10.9808 6.19725 10.5H1.62C1.54875 10.9913 1.5 11.4893 1.5 12ZM1.9425 9H6.81225C7.338 8.09325 8.09325 7.338 9 6.8115V1.9425C5.61975 2.952 2.952 5.61975 1.9425 9ZM12 1.5C11.4893 1.5 10.9913 1.54875 10.5 1.62V6.19725C10.9808 6.07275 11.481 6 12 6C12.519 6 13.0192 6.07275 13.5 6.19725V1.62C13.0087 1.54875 12.5107 1.5 12 1.5ZM15 1.9425V6.8115C15.9067 7.338 16.662 8.09325 17.1885 9H22.0575C21.048 5.61975 18.3802 2.952 15 1.9425ZM17.8027 10.5C17.9272 10.9808 18 11.481 18 12C18 12.519 17.9272 13.0192 17.8027 13.5H22.38C22.4513 13.0087 22.5 12.5107 22.5 12C22.5 11.4893 22.4513 10.9913 22.38 10.5H17.8027Z" fill="black"/>
</g>
<defs>
<clipPath id="clip0_84_2688">
<rect width="24" height="24" fill="white"/>
</clipPath>
</defs>
</svg>
