<svg width="40" height="40" viewBox="0 0 40 40" fill="none" xmlns="http://www.w3.org/2000/svg">
<rect width="40" height="40" rx="20" fill="#ECF5F2"/>
<path d="M21.3572 27.0602L20.9054 27.8234C20.5028 28.5037 19.4969 28.5037 19.0943 27.8234L18.6425 27.0602C18.2921 26.4682 18.1169 26.1722 17.8355 26.0085C17.5541 25.8448 17.1998 25.8387 16.4912 25.8266C15.445 25.8085 14.7889 25.7444 14.2387 25.5165C13.2177 25.0936 12.4066 24.2825 11.9837 23.2615C11.6665 22.4958 11.6665 21.5251 11.6665 19.5837V18.7503C11.6665 16.0225 11.6665 14.6585 12.2805 13.6566C12.6241 13.0959 13.0954 12.6246 13.6561 12.281C14.658 11.667 16.022 11.667 18.7498 11.667H21.2498C23.9777 11.667 25.3416 11.667 26.3436 12.281C26.9043 12.6246 27.3756 13.0959 27.7192 13.6566C28.3332 14.6585 28.3332 16.0225 28.3332 18.7503V19.5837C28.3332 21.5251 28.3332 22.4958 28.016 23.2615C27.5931 24.2825 26.782 25.0936 25.761 25.5165C25.2108 25.7444 24.5547 25.8085 23.5085 25.8266C22.7998 25.8387 22.4456 25.8448 22.1642 26.0085C21.8828 26.1722 21.7075 26.4682 21.3572 27.0602Z" fill="#3D9879"/>
</svg>
