<svg width="24" height="24" viewBox="0 0 24 24" fill="none" xmlns="http://www.w3.org/2000/svg">
<path d="M20.5801 19.3709L17.5901 11.0109C17.3801 10.4609 16.9101 10.1209 16.3701 10.1209C15.8301 10.1209 15.3701 10.4609 15.1401 11.0309L12.1601 19.3709C12.0201 19.7609 12.2201 20.1909 12.6101 20.3309C13.0001 20.4709 13.4301 20.2709 13.5701 19.8809L14.1901 18.1509H18.5401L19.1601 19.8809C19.2701 20.1909 19.5601 20.3809 19.8701 20.3809C19.9501 20.3809 20.0401 20.3709 20.1201 20.3409C20.5101 20.2009 20.7101 19.7709 20.5701 19.3809L20.5801 19.3709ZM14.7401 16.6409L16.3801 12.0509L18.0201 16.6409H14.7401ZM12.1901 7.85086C9.93011 11.4209 7.89012 13.5809 5.41012 15.0209C5.29012 15.0909 5.16012 15.1209 5.04012 15.1209C4.78012 15.1209 4.53012 14.9909 4.39012 14.7509C4.18012 14.3909 4.30012 13.9309 4.66012 13.7309C6.76011 12.5109 8.48012 10.7609 10.4101 7.86086H4.12012C3.71012 7.86086 3.37012 7.52086 3.37012 7.11086C3.37012 6.70086 3.71012 6.36086 4.12012 6.36086H7.87012V4.38086C7.87012 3.97086 8.21012 3.63086 8.62012 3.63086C9.03011 3.63086 9.37012 3.97086 9.37012 4.38086V6.36086H13.1201C13.5301 6.36086 13.8701 6.70086 13.8701 7.11086C13.8701 7.52086 13.5301 7.86086 13.1201 7.86086H12.1801L12.1901 7.85086ZM12.2301 15.1209C12.1001 15.1209 11.9701 15.0909 11.8501 15.0209C11.2001 14.6409 10.5701 14.2209 9.98011 13.7809C9.65011 13.5309 9.58012 13.0609 9.83012 12.7309C10.0801 12.4009 10.5501 12.3309 10.8801 12.5809C11.4201 12.9909 12.0101 13.3709 12.6101 13.7209C12.9701 13.9309 13.0901 14.3909 12.8801 14.7509C12.7401 14.9909 12.4901 15.1209 12.2301 15.1209Z" fill="black"/>
</svg>
