<svg width="32" height="32" viewBox="0 0 32 32" fill="none" xmlns="http://www.w3.org/2000/svg">
<path d="M13 16C13 14.3432 14.3432 13 16 13C17.6568 13 19 14.3432 19 16C19 17.6568 17.6568 19 16 19C14.3432 19 13 17.6568 13 16Z" fill="#3D9879"/>
<path d="M19.8262 6.63281C20.8858 6.36439 21.9049 6.51406 22.8008 6.97559C24.605 7.90507 25.9443 10.1294 25.9443 12.7988C25.9443 18.1768 22.0308 21.0303 18.9355 23.7803C18.3957 24.2599 17.8971 24.6962 17.4121 25.0156C16.925 25.3364 16.5083 25.5 16.1357 25.5C15.7632 25.5 15.3464 25.3364 14.8594 25.0156C14.3744 24.6962 13.8758 24.2599 13.3359 23.7803C10.2406 21.0303 6.32715 18.1768 6.32715 12.7988C6.32717 10.1294 7.66654 7.90509 9.4707 6.97559C10.3666 6.51407 11.3857 6.36441 12.4453 6.63281C13.5083 6.90211 14.6482 7.60152 15.7559 8.89844L16.1357 9.34375L16.5156 8.89844C17.6233 7.6015 18.7631 6.90211 19.8262 6.63281Z" fill="#3D9879" stroke="#3D9879"/>
</svg>
