<svg width="16" height="16" viewBox="0 0 16 16" fill="none" xmlns="http://www.w3.org/2000/svg">
<path d="M13.7472 5.63366C13.0472 2.55366 10.3606 1.16699 8.00057 1.16699C8.00057 1.16699 8.00057 1.16699 7.99391 1.16699C5.64055 1.16699 2.94722 2.54699 2.24722 5.62699C1.46722 9.06699 3.57389 11.9803 5.48055 13.8137C6.18722 14.4937 7.0939 14.8337 8.00057 14.8337C8.90724 14.8337 9.81391 14.4937 10.5139 13.8137C12.4206 11.9803 14.5272 9.07366 13.7472 5.63366ZM8.00057 8.97366C6.84057 8.97366 5.90055 8.03366 5.90055 6.87366C5.90055 5.71366 6.84057 4.77366 8.00057 4.77366C9.16057 4.77366 10.1006 5.71366 10.1006 6.87366C10.1006 8.03366 9.16057 8.97366 8.00057 8.97366Z" fill="#5775C2"/>
</svg>
