<svg width="24" height="24" viewBox="0 0 24 24" fill="none" xmlns="http://www.w3.org/2000/svg">
<path d="M9.0547 1.25C10.4222 1.24998 11.5246 1.24996 12.3915 1.36652C13.2916 1.48754 14.0495 1.74643 14.6514 2.34835C15.1764 2.87328 15.4416 3.51836 15.5808 4.27635C15.7161 5.01291 15.742 5.9143 15.748 6.99583C15.7503 7.41003 15.4164 7.74768 15.0022 7.74999C14.588 7.7523 14.2504 7.41838 14.2481 7.00418C14.242 5.91068 14.2136 5.1356 14.1055 4.54735C14.0014 3.98054 13.8342 3.65246 13.5908 3.40901C13.314 3.13225 12.9254 2.9518 12.1917 2.85315C11.4363 2.75159 10.4352 2.75 8.99979 2.75H7.99979C6.56439 2.75 5.5633 2.75159 4.8079 2.85315C4.0741 2.9518 3.6856 3.13225 3.4088 3.40901C3.132 3.68577 2.9516 4.07435 2.8529 4.80812C2.7514 5.56347 2.7498 6.56459 2.7498 8V16C2.7498 17.4354 2.7514 18.4365 2.8529 19.1919C2.9516 19.9257 3.132 20.3142 3.4088 20.591C3.6856 20.8678 4.0741 21.0482 4.8079 21.1469C5.5633 21.2484 6.56439 21.25 7.99979 21.25H8.99979C10.4352 21.25 11.4363 21.2484 12.1917 21.1469C12.9254 21.0482 13.314 20.8678 13.5908 20.591C13.8342 20.3475 14.0014 20.0195 14.1055 19.4527C14.2136 18.8644 14.242 18.0893 14.2481 16.9958C14.2504 16.5816 14.588 16.2477 15.0022 16.25C15.4164 16.2523 15.7503 16.59 15.748 17.0042C15.742 18.0857 15.7161 18.9871 15.5808 19.7236C15.4416 20.4816 15.1764 21.1267 14.6514 21.6517C14.0495 22.2536 13.2916 22.5125 12.3915 22.6335C11.5246 22.75 10.4222 22.75 9.0547 22.75H7.9449C6.5773 22.75 5.475 22.75 4.608 22.6335C3.7079 22.5125 2.9501 22.2536 2.3481 21.6517C1.7462 21.0497 1.4873 20.2919 1.3663 19.3918C1.2497 18.5248 1.2498 17.4225 1.2498 16.0549V7.94513C1.2498 6.57754 1.2497 5.47522 1.3663 4.60825C1.4873 3.70814 1.7462 2.95027 2.3481 2.34835C2.9501 1.74643 3.7079 1.48754 4.608 1.36652C5.475 1.24996 6.5773 1.24998 7.9449 1.25H9.0547Z" fill="#FF3B30"/>
<path d="M9 11.25C8.5858 11.25 8.25 11.5858 8.25 12C8.25 12.4142 8.5858 12.75 9 12.75H19.9726L18.0119 14.4306C17.6974 14.7001 17.661 15.1736 17.9306 15.4881C18.2001 15.8026 18.6736 15.839 18.9881 15.5694L22.4881 12.5694C22.6543 12.427 22.75 12.2189 22.75 12C22.75 11.7811 22.6543 11.573 22.4881 11.4306L18.9881 8.43057C18.6736 8.161 18.2001 8.19742 17.9306 8.51192C17.661 8.82641 17.6974 9.29989 18.0119 9.56945L19.9726 11.25H9Z" fill="#FF3B30"/>
</svg>
