<svg width="22" height="20" viewBox="0 0 22 20" fill="none" xmlns="http://www.w3.org/2000/svg">
<path d="M11.3691 2.91113C13.7192 0.332335 16.2372 0.0635282 18.1387 0.981445C20.0801 1.91869 21.5 4.14622 21.5 6.79883C21.5 12.1631 17.3317 15.0143 14.0225 17.7695C13.4467 18.2489 12.9126 18.6869 12.3926 19.0078C11.8716 19.3293 11.416 19.5 11 19.5C10.584 19.5 10.1284 19.3293 9.60742 19.0078C9.08737 18.6869 8.55331 18.2489 7.97754 17.7695C4.66832 15.0143 0.5 12.1631 0.5 6.79883C0.500028 4.14622 1.91995 1.91869 3.86133 0.981445C5.76275 0.0635363 8.28075 0.332339 10.6309 2.91113L11 3.31641L11.3691 2.91113Z" stroke="black"/>
</svg>
