<svg width="164" height="164" viewBox="0 0 164 164" fill="none" xmlns="http://www.w3.org/2000/svg">
<g clip-path="url(#clip0_120_2314)">
<path fill-rule="evenodd" clip-rule="evenodd" d="M108.063 15.4516C72.884 -15.2964 18.3351 2.10123 6.22576 47.704C1.14083 66.8428 6.04652 75.7296 6.04652 90.0939C6.04652 104.859 0 126.246 0 126.246C0 128.862 2.32247 131.412 5.18274 130.668C15.4096 127.995 31.6749 122.705 51.1264 127.987C116.538 145.719 158.513 59.5419 108.063 15.4516ZM159.466 164C159.043 164 158.603 163.943 158.154 163.828C106.441 150.846 109.913 165.431 81.1796 157.746C72.4847 155.424 64.5721 151.238 57.7433 145.81C109.929 152.203 153.428 106.739 145.727 53.1979C153.607 61.3979 159.393 71.5518 161.838 82.9239C168.797 115.201 151.13 109.74 163.867 158.792C164.616 161.662 162.074 164 159.466 164Z" fill="#3D9879"/>
</g>
<defs>
<clipPath id="clip0_120_2314">
<rect width="164" height="164" fill="white"/>
</clipPath>
</defs>
</svg>
