<svg width="24" height="24" viewBox="0 0 24 24" fill="none" xmlns="http://www.w3.org/2000/svg">
<path d="M8 12C8 12.3956 7.8827 12.7822 7.66294 13.1111C7.44318 13.44 7.13082 13.6964 6.76537 13.8478C6.39992 13.9991 5.99778 14.0387 5.60982 13.9616C5.22186 13.8844 4.86549 13.6939 4.58579 13.4142C4.30608 13.1345 4.1156 12.7781 4.03843 12.3902C3.96126 12.0022 4.00087 11.6001 4.15224 11.2346C4.30362 10.8692 4.55996 10.5568 4.88886 10.3371C5.21776 10.1173 5.60444 10 6 10C6.53043 10 7.03914 10.2107 7.41421 10.5858C7.78929 10.9609 8 11.4696 8 12ZM18 10C17.6044 10 17.2178 10.1173 16.8889 10.3371C16.56 10.5568 16.3036 10.8692 16.1522 11.2346C16.0009 11.6001 15.9613 12.0022 16.0384 12.3902C16.1156 12.7781 16.3061 13.1345 16.5858 13.4142C16.8655 13.6939 17.2219 13.8844 17.6098 13.9616C17.9978 14.0387 18.3999 13.9991 18.7654 13.8478C19.1308 13.6964 19.4432 13.44 19.6629 13.1111C19.8827 12.7822 20 12.3956 20 12C20 11.4696 19.7893 10.9609 19.4142 10.5858C19.0391 10.2107 18.5304 10 18 10ZM12 10C11.6044 10 11.2178 10.1173 10.8889 10.3371C10.56 10.5568 10.3036 10.8692 10.1522 11.2346C10.0009 11.6001 9.96126 12.0022 10.0384 12.3902C10.1156 12.7781 10.3061 13.1345 10.5858 13.4142C10.8655 13.6939 11.2219 13.8844 11.6098 13.9616C11.9978 14.0387 12.3999 13.9991 12.7654 13.8478C13.1308 13.6964 13.4432 13.44 13.6629 13.1111C13.8827 12.7822 14 12.3956 14 12C14 11.4696 13.7893 10.9609 13.4142 10.5858C13.0391 10.2107 12.5304 10 12 10Z" fill="#3D9879"/>
</svg>
