<svg width="24" height="24" viewBox="0 0 24 24" fill="none" xmlns="http://www.w3.org/2000/svg">
<path fill-rule="evenodd" clip-rule="evenodd" d="M1.94971 4.45024C1.94969 3.06952 3.06898 1.95022 4.4497 1.95021L12.0209 1.9502C12.8165 1.9502 13.5796 2.26627 14.1422 2.82888L22.0417 10.7284C23.6038 12.2905 23.6038 14.8232 22.0417 16.3853L16.3848 22.0421C14.8227 23.6042 12.2901 23.6042 10.728 22.0421L2.82846 14.1426C2.26586 13.58 1.94979 12.817 1.94978 12.0213L1.94971 4.45024ZM8.5 10.0004C9.32843 10.0004 10 9.3288 10 8.50037C10 7.67194 9.32843 7.00037 8.5 7.00037C7.67157 7.00037 7 7.67194 7 8.50037C7 9.3288 7.67157 10.0004 8.5 10.0004Z" fill="#3D9879"/>
</svg>
