<svg width="33" height="32" viewBox="0 0 33 32" fill="none" xmlns="http://www.w3.org/2000/svg">
<path d="M4.5 8.51496C4.5 7.86902 4.96051 7.34538 5.52857 7.34538L9.08089 7.34475C9.78669 7.32441 10.4094 6.8141 10.6495 6.05915C10.6558 6.0393 10.6631 6.01482 10.6891 5.92598L10.8422 5.40374C10.9359 5.08354 11.0175 4.80457 11.1317 4.55522C11.5828 3.57014 12.4174 2.88609 13.382 2.71095C13.6261 2.66662 13.8847 2.66681 14.1815 2.66702H18.8188C19.1156 2.66681 19.3741 2.66662 19.6183 2.71095C20.5828 2.88609 21.4175 3.57014 21.8685 4.55522C21.9828 4.80457 22.0644 5.08354 22.158 5.40374L22.3111 5.92598C22.3371 6.01482 22.3444 6.0393 22.3507 6.05915C22.5909 6.8141 23.3371 7.32504 24.0428 7.34538H27.4715C28.0395 7.34538 28.5 7.86902 28.5 8.51496C28.5 9.1609 28.0395 9.68454 27.4715 9.68454H5.52857C4.96051 9.68454 4.5 9.1609 4.5 8.51496Z" fill="white"/>
<path fill-rule="evenodd" clip-rule="evenodd" d="M15.9606 29.3335H17.039C20.7493 29.3335 22.6045 29.3335 23.8106 28.1523C25.0169 26.9711 25.1402 25.0335 25.387 21.1581L25.7426 15.5743C25.8766 13.4716 25.9436 12.4203 25.3384 11.7541C24.7333 11.0879 23.7114 11.0879 21.6678 11.0879H11.3319C9.2882 11.0879 8.26634 11.0879 7.66124 11.7541C7.05613 12.4203 7.12309 13.4716 7.25701 15.5743L7.61262 21.1581C7.85944 25.0335 7.98284 26.9711 9.18902 28.1523C10.3952 29.3335 12.2504 29.3335 15.9606 29.3335ZM14.1616 16.2515C14.1066 15.6731 13.6165 15.2509 13.067 15.3088C12.5175 15.3667 12.1165 15.8825 12.1715 16.4609L12.8381 23.4785C12.8931 24.0569 13.3831 24.4791 13.9326 24.4212C14.4822 24.3633 14.8832 23.8475 14.8282 23.2691L14.1616 16.2515ZM19.9326 15.3088C20.4822 15.3667 20.8832 15.8825 20.8282 16.4609L20.1616 23.4785C20.1066 24.0569 19.6165 24.4791 19.067 24.4212C18.5174 24.3633 18.1165 23.8475 18.1714 23.2691L18.8381 16.2515C18.893 15.6731 19.3832 15.2509 19.9326 15.3088Z" fill="white"/>
</svg>
