<svg width="138" height="138" viewBox="0 0 138 138" fill="none" xmlns="http://www.w3.org/2000/svg">
<path d="M7.5001 110C6.33576 110 5.19089 109.702 4.17412 109.134C3.15735 108.567 2.30242 107.749 1.69043 106.759C1.07845 105.768 0.729719 104.638 0.677331 103.474C0.624944 102.311 0.870636 101.154 1.3911 100.112L14.3334 74.2142V55.3337C14.3334 40.8352 20.0929 26.9305 30.3449 16.6785C40.5969 6.4265 54.5016 0.666992 69.0001 0.666992C83.4986 0.666992 97.4033 6.4265 107.655 16.6785C117.907 26.9305 123.667 40.8352 123.667 55.3337V74.221L136.609 100.112C137.13 101.154 137.375 102.311 137.323 103.474C137.27 104.638 136.922 105.768 136.31 106.759C135.698 107.749 134.843 108.567 133.826 109.134C132.809 109.702 131.664 110 130.5 110H7.5001ZM69.0001 137.334C62.9398 137.333 57.0515 135.319 52.2599 131.608C47.4684 127.898 44.0451 122.701 42.5278 116.834H95.4724C93.9551 122.701 90.5318 127.898 85.7403 131.608C80.9487 135.319 75.0604 137.333 69.0001 137.334Z" fill="#3D9879"/>
</svg>
