<svg width="24" height="18" viewBox="0 0 24 18" fill="none" xmlns="http://www.w3.org/2000/svg">
<path fill-rule="evenodd" clip-rule="evenodd" d="M23.25 4.5C23.25 3.5055 22.8548 2.5515 22.152 1.848C21.4485 1.14525 20.4945 0.75 19.5 0.75C15.5085 0.75 8.4915 0.75 4.5 0.75C3.5055 0.75 2.5515 1.14525 1.848 1.848C1.14525 2.5515 0.75 3.5055 0.75 4.5C0.75 7.1145 0.75 10.8855 0.75 13.5C0.75 14.4945 1.14525 15.4485 1.848 16.152C2.5515 16.8547 3.5055 17.25 4.5 17.25C8.4915 17.25 15.5085 17.25 19.5 17.25C20.4945 17.25 21.4485 16.8547 22.152 16.152C22.8548 15.4485 23.25 14.4945 23.25 13.5C23.25 10.8855 23.25 7.1145 23.25 4.5ZM3.333 4.33425C3.333 4.33425 7.19175 7.512 9.612 9.50475C10.9987 10.647 13.0012 10.6448 14.3857 9.4995C16.8135 7.49175 20.6955 4.28025 20.6955 4.28025C21.0142 4.01625 21.0592 3.543 20.7952 3.22425C20.532 2.9055 20.0588 2.8605 19.7393 3.1245C19.7393 3.1245 15.8573 6.33525 13.4303 8.34375C12.5993 9.03075 11.3978 9.03225 10.5653 8.34675L4.28625 3.17625C3.96675 2.913 3.49425 2.95875 3.231 3.27825C2.96775 3.59775 3.0135 4.071 3.333 4.33425Z" fill="#899197"/>
</svg>
