<svg width="18" height="21" viewBox="0 0 18 21" fill="none" xmlns="http://www.w3.org/2000/svg">
<path fill-rule="evenodd" clip-rule="evenodd" d="M10.803 3.83333C10.803 1.99238 12.3022 0.5 14.1515 0.5C16.0008 0.5 17.5 1.99238 17.5 3.83333C17.5 5.67428 16.0008 7.16667 14.1515 7.16667C13.2177 7.16667 12.3738 6.78596 11.7671 6.17347L7.1317 9.3295C7.1745 9.5425 7.197 9.7625 7.197 9.9872C7.197 10.4322 7.109 10.8576 6.94959 11.2464L12.0323 14.5858C12.6092 14.1161 13.3473 13.8333 14.1515 13.8333C16.0008 13.8333 17.5 15.3257 17.5 17.1667C17.5 19.0076 16.0008 20.5 14.1515 20.5C12.3022 20.5 10.803 19.0076 10.803 17.1667C10.803 16.6845 10.9062 16.2255 11.0917 15.8111L6.05007 12.4987C5.46196 13.0098 4.6916 13.3205 3.84848 13.3205C1.99917 13.3205 0.5 11.8281 0.5 9.9872C0.5 8.14623 1.99917 6.65385 3.84848 6.65385C4.9119 6.65385 5.85853 7.14725 6.47145 7.91518L10.9639 4.85642C10.8594 4.53359 10.803 4.1896 10.803 3.83333Z" fill="white"/>
</svg>
