<svg width="22" height="22" viewBox="0 0 22 22" fill="none" xmlns="http://www.w3.org/2000/svg">
<path d="M21.7188 10.9997C21.7188 13.8427 20.5894 16.5692 18.5791 18.5795C16.5688 20.5898 13.8423 21.7192 10.9993 21.7192C8.1563 21.7192 5.42975 20.5898 3.41945 18.5795C1.40916 16.5692 0.279785 13.8427 0.279785 10.9997H1.11779C1.10945 13.4031 1.97426 15.7277 3.55141 17.5412C5.12855 19.3547 7.31066 20.5337 9.69194 20.8589C12.0732 21.1841 14.4916 20.6334 16.4972 19.3092C18.5029 17.985 19.9594 15.9774 20.5958 13.6598C21.2322 11.3423 21.0052 8.87242 19.9571 6.70964C18.9089 4.54685 17.111 2.83835 14.8975 1.90186C12.6841 0.965377 10.2059 0.864649 7.9238 1.61841C5.64168 2.37218 3.71099 3.92913 2.49079 5.99971H6.99979V6.99971H0.999785V0.999709H1.99979V5.19971C3.25143 3.25271 5.10016 1.7636 7.26908 0.955383C9.438 0.147168 11.8104 0.0633522 14.0309 0.716488C16.2515 1.36962 18.2007 2.72456 19.5866 4.57837C20.9725 6.43218 21.7206 8.6851 21.7188 10.9997ZM14.9998 11.9997H10.9998V5.99971H9.99979V12.9997H14.9998V11.9997Z" fill="black" fill-opacity="0.75"/>
</svg>
